<svg xmlns="http://www.w3.org/2000/svg" viewBox="0 0 128 128" role="img" aria-labelledby="title">
  <title>ExtensionChecker</title>
  <!-- Puzzle piece body -->
  <path d="M88 16H72c0-8.8-7.2-16-16-16S40 7.2 40 16H24c-4.4 0-8 3.6-8 8v16c-8.8 0-16 7.2-16 16s7.2 16 16 16v16c0 4.4 3.6 8 8 8h16c0-8.8 7.2-16 16-16s16 7.2 16 16h16c4.4 0 8-3.6 8-8V72c8.8 0 16-7.2 16-16s-7.2-16-16-16V24c0-4.4-3.6-8-8-8z" fill="#4a4a4a"/>
  <!-- Green check circle -->
  <circle cx="30" cy="106" r="22" fill="#4caf50"/>
  <path d="M21 106l6 6 12-12" fill="none" stroke="#fff" stroke-width="4.5" stroke-linecap="round" stroke-linejoin="round"/>
  <!-- Red X circle -->
  <circle cx="98" cy="106" r="22" fill="#f44336"/>
  <path d="M89 97l18 18M107 97l-18 18" fill="none" stroke="#fff" stroke-width="4.5" stroke-linecap="round" stroke-linejoin="round"/>
</svg>
